<svg xmlns="http://www.w3.org/2000/svg"><symbol viewBox="0 0 37.478664 37.005333" id="src-1">
<g id="linkedin">
<path id="Vector" d="M36.1981 4.98438H6.73899C6.03053 4.98438 5.45816 5.55675 5.45816 6.26521V35.7243C5.45816 36.4328 6.03053 37.0052 6.73899 37.0052H36.1981C36.9066 37.0052 37.4789 36.4328 37.4789 35.7243V6.26521C37.4789 5.55675 36.9066 4.98438 36.1981 4.98438ZM14.9563 32.2701H10.2052V16.9882H14.9563V32.2701ZM12.5828 14.8988C12.0381 14.8988 11.5057 14.7373 11.0529 14.4347C10.6 14.1321 10.247 13.702 10.0386 13.1988C9.83019 12.6957 9.77565 12.142 9.88191 11.6078C9.98817 11.0736 10.2504 10.5829 10.6356 10.1978C11.0207 9.81268 11.5114 9.5504 12.0455 9.44415C12.5797 9.33789 13.1334 9.39243 13.6366 9.60085C14.1398 9.80928 14.5699 10.1622 14.8725 10.6151C15.1751 11.068 15.3366 11.6004 15.3366 12.145C15.3326 13.666 14.0998 14.8988 12.5828 14.8988ZM32.7439 32.2701H27.9968V24.8373C27.9968 23.0641 27.9648 20.7866 25.5272 20.7866C23.0576 20.7866 22.6773 22.7159 22.6773 24.7092V32.2701H17.9343V16.9882H22.4892V19.0775H22.5533C23.1857 17.8767 24.7347 16.6079 27.0482 16.6079C31.8593 16.6079 32.7439 19.774 32.7439 23.8886V32.2701Z" fill="white"/>
</g>
</symbol><symbol viewBox="0 0 37.49066 37.005333" id="src-2">
<g id="facebook">
<path id="Vector" d="M36.2103 4.98438H6.7512C6.04274 4.98438 5.47037 5.55675 5.47037 6.26521V35.7243C5.47037 36.4328 6.04274 37.0052 6.7512 37.0052H36.2103C36.9188 37.0052 37.4911 36.4328 37.4911 35.7243V6.26521C37.4911 5.55675 36.9188 4.98438 36.2103 4.98438ZM32.5119 14.3304H29.9543C27.949 14.3304 27.5607 15.2831 27.5607 16.684V19.77H32.3478L31.7234 24.6011H27.5607V37.0052H22.5695V24.6051H18.3948V19.77H22.5695V16.2077C22.5695 12.073 25.0951 9.81951 28.7855 9.81951C30.5546 9.81951 32.0716 9.9516 32.5159 10.0116V14.3304H32.5119Z" fill="white"/>
</g>
</symbol><symbol viewBox="0 0 37.145332 34.524" id="src-3">
<g id="twitter">
<path id="Vector" d="M37.1449 10.6809C35.9201 11.2092 34.5873 11.5895 33.2144 11.7376C34.6398 10.8908 35.7072 9.55297 36.2163 7.97514C34.8788 8.77082 33.4135 9.32876 31.8855 9.62421C31.2469 8.94148 30.4745 8.39758 29.6165 8.02641C28.7584 7.65524 27.8332 7.46475 26.8983 7.46681C23.1158 7.46681 20.0739 10.5328 20.0739 14.2952C20.0739 14.8236 20.1379 15.3519 20.242 15.8603C14.5783 15.5641 9.52702 12.8583 6.16884 8.71562C5.55694 9.76076 5.23629 10.9508 5.24023 12.1619C5.24023 14.5314 6.44502 16.6208 8.28221 17.8496C7.19952 17.8069 6.14219 17.5093 5.19621 16.981V17.065C5.19621 20.3832 7.54173 23.133 10.6678 23.7654C10.0808 23.9179 9.47701 23.9958 8.87059 23.9975C8.4263 23.9975 8.00603 23.9535 7.58175 23.8935C8.44631 26.5992 10.9639 28.5645 13.9619 28.6285C11.6164 30.4657 8.67846 31.5464 5.48839 31.5464C4.91602 31.5464 4.38768 31.5264 3.83932 31.4624C6.86529 33.4036 10.4556 34.5244 14.3221 34.5244C26.8743 34.5244 33.7427 24.1256 33.7427 15.0998C33.7427 14.8036 33.7427 14.5074 33.7227 14.2112C35.0516 13.2386 36.2163 12.0338 37.1449 10.6809Z" fill="white"/>
</g>
</symbol><symbol viewBox="0 0 27.708 33.542667" id="src-4">
<g id="phone">
<path id="Vector" d="M23.3333 1.45996H11.6667C9.24582 1.45996 7.29166 3.41413 7.29166 5.83496V29.1683C7.29166 31.5891 9.24582 33.5433 11.6667 33.5433H23.3333C25.7542 33.5433 27.7083 31.5891 27.7083 29.1683V5.83496C27.7083 3.41413 25.7542 1.45996 23.3333 1.45996ZM20.4167 30.6266H14.5833V29.1683H20.4167V30.6266ZM25.1562 26.2516H9.84374V5.83496H25.1562V26.2516Z" fill="white"/>
</g>
</symbol><symbol viewBox="0 0 38.333332 42.668" id="src-5">
<g id="map">
<path id="Vector" d="M23 27.3353C27.2282 27.3353 30.6667 23.8968 30.6667 19.6686C30.6667 15.4405 27.2282 12.002 23 12.002C18.7718 12.002 15.3333 15.4405 15.3333 19.6686C15.3333 23.8968 18.7718 27.3353 23 27.3353ZM23 15.8353C25.1141 15.8353 26.8333 17.5545 26.8333 19.6686C26.8333 21.7827 25.1141 23.502 23 23.502C20.8859 23.502 19.1667 21.7827 19.1667 19.6686C19.1667 17.5545 20.8859 15.8353 23 15.8353Z" fill="white"/>
<path id="Vector_2" d="M21.8884 42.3118C22.2128 42.5435 22.6014 42.668 23.0001 42.668C23.3987 42.668 23.7873 42.5435 24.1117 42.3118C24.6944 41.8997 38.389 32.0116 38.3334 19.6683C38.3334 11.2139 31.4545 4.33496 23.0001 4.33496C14.5457 4.33496 7.66673 11.2139 7.66673 19.6587C7.61115 32.0116 21.3057 41.8997 21.8884 42.3118ZM23.0001 8.16829C29.3423 8.16829 34.5001 13.326 34.5001 19.6779C34.5403 28.184 26.0897 35.822 23.0001 38.327C19.9123 35.82 11.4598 28.1802 11.5001 19.6683C11.5001 13.326 16.6578 8.16829 23.0001 8.16829Z" fill="white"/>
</g>
</symbol><symbol viewBox="0 0 41 19" id="src-6">
<path id="Vector" d="M31.775 4.03437e-05C29.315 4.03437e-05 26.9917 0.988885 25.3346 2.70171L13.325 13.7203C12.2317 14.8504 10.7796 15.4684 9.225 15.4684C6.03042 15.4684 3.41667 12.8021 3.41667 9.50002C3.41667 6.19798 6.03042 3.53163 9.225 3.53163C10.7796 3.53163 12.2317 4.14966 13.3933 5.3504L15.3238 7.1162L17.9375 4.75003L15.7508 2.79C14.8953 1.90238 13.8782 1.19881 12.7581 0.719939C11.6379 0.241065 10.4371 -0.0036143 9.225 4.03437e-05C4.13417 4.03437e-05 0 4.27327 0 9.50002C0 14.7268 4.13417 19 9.225 19C11.685 19 14.0083 18.0112 15.6654 16.2983L27.675 5.27977C28.7683 4.14966 30.2204 3.53163 31.775 3.53163C34.9696 3.53163 37.5833 6.19798 37.5833 9.50002C37.5833 12.8021 34.9696 15.4684 31.775 15.4684C30.2375 15.4684 28.7683 14.8504 27.6067 13.6496L25.625 11.8662L23.0625 14.2324L25.2492 16.21C26.107 17.0932 27.125 17.7927 28.2448 18.2684C29.3646 18.7442 30.5643 18.9868 31.775 18.9823C36.8658 18.9823 41 14.7268 41 9.50002C41 4.20263 36.8658 4.03437e-05 31.775 4.03437e-05Z" fill="#02E4C0"/>
</symbol><symbol viewBox="0 0 29 30" id="src-7">
<path id="Vector" d="M12.0495 13.395C13.5285 15.855 13.311 18.75 11.542 19.92C9.773 21.06 7.134 19.995 5.6405 17.535C4.1615 15.075 4.3935 12.15 6.1625 11.01C7.9315 9.87 10.5705 10.935 12.0495 13.395ZM14.5 23.625C17.4 23.625 18.125 22.5 18.125 22.5C18.125 22.5 17.4 25.5 14.5 25.5C11.6 25.5 10.875 22.545 10.875 22.5C10.875 22.5 11.6 23.625 14.5 23.625ZM22.8375 11.01C24.6065 12.15 24.8385 15.075 23.3595 17.535C21.866 19.995 19.227 21.06 17.458 19.92C15.689 18.75 15.4715 15.855 16.9505 13.395C18.4295 10.935 21.0685 9.87 22.8375 11.01ZM14.5 27C18.125 27 26.1 19.29 26.1 13.5C26.1 7.71 20.8945 3 14.5 3C8.1055 3 2.9 7.71 2.9 13.5C2.9 19.29 10.875 27 14.5 27ZM14.5 0C22.475 0 29 6.06 29 13.5C29 19.62 20.764 30 14.5 30C8.236 30 0 19.62 0 13.5C0 6.06 6.525 0 14.5 0Z" fill="#02E4C0"/>
</symbol><symbol viewBox="0 0 25.493639 23.665335" id="src-8">
<path id="Vector" d="M7.14636 13.6089L10.9197 9.83554L2.66636 1.59554C2.02636 0.955542 0.919691 1.12888 0.519691 1.95554C-0.426976 3.94221 -0.0803094 6.38221 1.55969 8.03554L7.14636 13.6089ZM16.1864 11.1955C18.2264 12.1422 21.093 11.4755 23.213 9.35554C25.7597 6.80887 26.253 3.15554 24.293 1.19554C22.3464 -0.751124 18.693 -0.271124 16.133 2.27554C14.013 4.39554 13.3464 7.26221 14.293 9.30221L2.21302 21.3822C1.96372 21.6315 1.82366 21.9696 1.82366 22.3222C1.82366 22.6748 1.96372 23.0129 2.21302 23.2622C2.46233 23.5115 2.80046 23.6516 3.15302 23.6516C3.50559 23.6516 3.84372 23.5115 4.09302 23.2622L12.3464 15.0355L20.5864 23.2755C20.7098 23.399 20.8563 23.4969 21.0176 23.5637C21.1789 23.6305 21.3518 23.6649 21.5264 23.6649C21.7009 23.6649 21.8738 23.6305 22.0351 23.5637C22.1964 23.4969 22.3429 23.399 22.4664 23.2755C22.5898 23.1521 22.6877 23.0055 22.7545 22.8443C22.8213 22.683 22.8557 22.5101 22.8557 22.3355C22.8557 22.161 22.8213 21.9881 22.7545 21.8268C22.6877 21.6655 22.5898 21.519 22.4664 21.3955L14.2264 13.1555L16.1864 11.1955Z" fill="#02E4C0"/>
</symbol><symbol viewBox="0 0 55 39.750668" id="src-9">
<g id="burger">
<path id="Vector" d="M11 13.25H55V17.6667H11V13.25ZM22 24.2917H55V28.7083H22V24.2917ZM35.75 35.3333H55V39.75H35.75V35.3333Z" fill="white"/>
</g>
</symbol></svg>